<?xml version="1.0" standalone="no"?>
<!DOCTYPE svg PUBLIC "-//W3C//DTD SVG 20010904//EN"
 "http://www.w3.org/TR/2001/REC-SVG-20010904/DTD/svg10.dtd">
<svg version="1.0" xmlns="http://www.w3.org/2000/svg"
 width="240.000000pt" height="280.000000pt" viewBox="0 0 240.000000 280.000000"
 preserveAspectRatio="xMidYMid meet">

<g transform="translate(0.000000,280.000000) scale(0.100000,-0.100000)"
fill="#000000" stroke="none">
<path d="M1041 2733 c-6 -21 -11 -70 -11 -108 l0 -70 -72 -23 c-113 -35 -233
-120 -306 -215 -18 -24 -32 -30 -89 -38 -94 -13 -239 -53 -320 -87 l-68 -29 2
-52 c3 -63 44 -221 85 -328 55 -145 55 -125 5 -263 -51 -140 -108 -329 -162
-530 -60 -229 -58 -379 8 -503 35 -67 71 -101 142 -133 66 -30 155 -47 148
-27 -6 16 -9 16 51 -2 27 -8 60 -15 72 -15 13 0 44 -13 70 -30 26 -16 70 -37
98 -46 77 -25 144 -62 157 -85 6 -12 16 -40 23 -62 l12 -41 22 67 c12 37 22
76 22 87 0 26 1 26 57 -10 62 -40 79 -39 87 4 4 19 15 45 26 58 l19 23 35 -34
c21 -20 36 -45 36 -58 0 -13 5 -23 11 -23 14 0 79 67 79 81 0 5 19 -4 42 -21
30 -22 52 -30 83 -30 l42 0 12 -55 13 -55 44 39 c29 25 73 49 122 67 42 15
101 36 129 46 29 11 71 35 94 54 22 19 48 34 56 34 39 0 138 68 203 137 l67
74 -9 -53 c-8 -44 -23 -85 -65 -185 -9 -21 79 14 120 48 44 36 80 103 96 177
24 113 8 335 -35 507 -33 130 -107 369 -150 481 -24 64 -44 125 -44 135 0 9
16 58 35 107 37 96 115 363 115 393 0 34 -97 70 -334 125 l-120 27 -90 92
c-73 73 -107 100 -170 131 -75 37 -86 39 -187 42 l-108 4 -25 42 c-24 40 -100
121 -143 151 -21 15 -22 14 -32 -22z m131 -116 c17 -21 41 -64 54 -95 21 -51
24 -54 24 -26 0 31 2 32 53 38 128 16 279 -52 396 -179 58 -64 141 -199 207
-339 53 -113 154 -373 154 -399 0 -10 4 -16 9 -13 12 8 99 -235 156 -434 50
-176 54 -218 24 -334 -11 -45 -29 -63 -29 -28 0 9 -9 35 -19 57 l-19 40 -1
-37 c-2 -101 -52 -232 -115 -303 l-36 -40 31 70 c67 154 96 333 85 525 -7 113
-47 377 -66 435 l-10 30 5 -33 c53 -362 62 -490 45 -640 -14 -127 -52 -264
-88 -316 -58 -84 -175 -187 -331 -291 -86 -57 -167 -115 -180 -129 -14 -14
-28 -26 -33 -26 -13 0 -9 130 6 186 17 63 111 275 179 404 35 66 72 118 122
170 86 90 126 148 170 243 44 97 65 184 70 292 l4 90 -9 -78 c-24 -206 -115
-403 -241 -522 -28 -27 -40 -33 -35 -20 4 11 19 52 34 90 14 39 41 93 59 120
85 127 161 485 135 635 -9 52 -10 48 -11 -57 -1 -126 -15 -211 -61 -368 -26
-90 -73 -205 -83 -205 -1 0 -1 93 1 207 5 302 -20 423 -138 668 -64 135 -103
191 -152 226 -28 20 -27 17 10 -20 31 -30 63 -82 108 -174 102 -210 144 -365
158 -582 5 -83 4 -88 -10 -70 -32 41 -118 222 -136 285 -10 36 -16 51 -13 33
8 -60 18 -213 13 -213 -3 0 -21 24 -40 53 -19 28 -65 84 -101 122 -39 43 -76
96 -95 135 -16 36 -37 74 -46 85 -9 11 -2 -8 14 -42 53 -110 121 -333 101
-333 -16 0 -109 90 -133 128 -13 20 -31 54 -40 77 -9 22 -17 33 -17 25 0 -8 9
-35 20 -60 23 -49 69 -187 69 -208 0 -32 -126 22 -190 81 -19 18 -52 52 -73
77 -48 55 -46 52 47 -95 41 -66 73 -121 71 -124 -3 -2 -34 10 -69 28 -130 64
-213 195 -252 395 l-14 71 5 -67 c3 -55 1 -71 -16 -91 -30 -39 -68 -127 -75
-175 -5 -37 -8 -41 -22 -30 -20 17 -51 87 -52 115 0 12 -4 24 -8 27 -4 2 -6
-10 -4 -28 3 -26 -12 -57 -83 -171 -48 -77 -90 -142 -93 -145 -2 -3 -2 51 1
120 12 251 103 503 260 720 23 31 31 46 18 35 -35 -30 -147 -203 -182 -280
-91 -200 -125 -378 -116 -605 7 -173 1 -177 -37 -24 -33 131 -56 293 -56 393
0 54 -4 81 -12 81 -15 0 -4 -212 17 -332 19 -108 59 -240 91 -295 13 -23 24
-48 24 -55 0 -7 20 -59 44 -115 24 -57 40 -101 36 -98 -16 10 -129 183 -173
265 -48 89 -105 247 -131 365 l-16 70 6 -63 c7 -82 44 -211 91 -315 62 -137
212 -355 235 -341 7 5 8 2 3 -5 -4 -7 1 -22 13 -34 29 -33 169 -317 198 -405
22 -65 26 -90 22 -159 -2 -46 -7 -86 -11 -89 -4 -4 -33 18 -65 48 -32 31 -125
99 -207 153 -187 122 -247 181 -275 271 -69 223 -96 518 -70 762 11 100 37
195 52 186 4 -3 8 6 8 21 0 36 81 238 151 375 64 127 152 271 202 331 74 89
210 174 319 196 45 10 48 9 79 -23 l33 -34 -48 0 c-52 0 -90 -16 -121 -50 -19
-21 -16 -21 35 5 43 22 68 28 118 28 l63 0 -54 56 c-42 43 -56 67 -62 99 -6
38 0 94 12 115 6 10 61 -40 105 -96z m-625 -450 c-34 -51 -69 -106 -78 -122
l-17 -28 -12 22 c-9 18 -8 27 5 47 8 13 24 24 35 24 15 0 19 8 22 38 2 27 9
40 26 47 13 6 22 19 22 32 0 20 13 29 47 32 7 0 -16 -41 -50 -92z m1323 66 c0
-7 10 -27 22 -43 12 -16 19 -32 16 -36 -3 -3 -19 14 -35 38 -45 66 -45 67 -23
61 11 -3 20 -12 20 -20z m78 -119 c14 -10 22 -25 22 -45 0 -41 -11 -36 -38 16
-24 48 -20 55 16 29z m-1520 -149 c-25 -51 -38 -57 -38 -18 0 29 25 63 46 63
10 0 8 -12 -8 -45z m1590 33 c14 -14 16 -74 3 -82 -5 -3 -18 17 -29 44 -19 46
-20 50 -3 50 9 0 22 -5 29 -12z m-1058 -328 c0 -3 -17 -5 -39 -5 -36 0 -38 2
-30 22 5 13 16 35 26 49 l17 26 13 -43 c7 -24 13 -46 13 -49z m631 -109 c29
-39 30 -43 10 -36 -11 3 -33 8 -49 9 -24 3 -28 9 -38 52 -6 27 -14 60 -18 74
-6 21 -2 19 28 -15 20 -22 50 -60 67 -84z m-595 38 c49 -97 162 -186 257 -204
20 -4 37 -4 37 -1 0 4 -19 35 -42 69 -41 60 -41 61 -13 42 44 -29 97 -55 112
-55 11 0 11 -5 3 -20 -12 -23 2 -27 20 -5 7 8 19 15 27 15 10 0 8 -8 -8 -29
-12 -17 -23 -50 -26 -77 l-4 -49 19 40 c24 49 55 79 104 100 51 21 76 19 135
-10 104 -52 148 -179 108 -310 -16 -54 -15 -64 5 -40 7 8 20 15 29 15 12 0 13
2 3 8 -18 12 -4 42 22 43 16 1 17 2 4 6 -15 4 -27 33 -14 33 2 0 12 3 21 7 30
11 9 -105 -41 -224 -24 -58 -44 -109 -44 -113 0 -5 -12 -29 -27 -55 -23 -37
-41 -52 -98 -80 -126 -61 -177 -70 -390 -70 -206 1 -261 10 -371 62 l-55 26
-75 156 c-92 190 -114 255 -121 347 l-6 71 93 156 92 156 24 -47 c13 -26 24
-48 24 -48 0 -1 -14 -7 -30 -14 -31 -13 -112 -95 -132 -134 l-11 -21 23 20 23
20 -17 -32 c-9 -18 -24 -33 -33 -33 -13 0 -14 -3 -5 -12 17 -17 15 -48 -3 -48
-8 0 -15 -4 -15 -9 0 -5 7 -11 15 -15 25 -9 19 -46 -7 -47 l-23 0 23 -11 c24
-12 30 -38 10 -39 -7 0 -2 -5 11 -10 17 -7 22 -15 18 -29 -3 -11 -1 -20 3 -20
5 0 17 -8 26 -17 17 -17 18 -17 10 2 -17 46 -28 121 -24 166 20 204 253 283
347 117 32 -55 46 -52 30 6 -19 70 -98 136 -164 136 -14 0 -25 5 -25 10 0 6
18 10 39 10 28 0 54 -10 92 -36 48 -32 51 -33 29 -9 -30 33 -95 64 -134 65
-27 0 -28 2 -21 36 14 76 20 84 70 84 44 0 45 -1 71 -51z m760 -156 c59 -125
65 -142 62 -193 -3 -47 -6 -55 -23 -55 -24 0 -22 32 3 52 16 11 16 12 -1 13
-23 0 -33 26 -17 45 10 12 9 15 -4 15 -9 0 -16 4 -16 9 0 5 -16 32 -35 60 -45
66 -45 77 0 17 20 -25 38 -46 40 -46 12 0 -13 47 -40 76 -28 29 -34 44 -37 89
-1 30 -2 55 0 55 1 0 32 -62 68 -137z m-324 61 c-15 -11 -18 -9 -29 19 -18 49
-15 53 17 22 27 -26 28 -29 12 -41z m162 5 c23 -6 47 -19 54 -30 14 -22 6 -24
-28 -4 -14 8 -40 14 -57 15 -23 0 -33 5 -33 15 0 18 8 18 64 4z m-104 -18 c0
-9 -62 -32 -69 -25 -9 9 42 42 56 37 7 -3 13 -8 13 -12z m-690 -8 c-19 -8 -41
-20 -47 -25 -7 -6 -13 -8 -13 -4 0 10 64 46 80 45 8 0 -1 -7 -20 -16z m-542
-168 c-25 -261 25 -594 117 -781 l40 -82 -29 16 c-38 23 -108 104 -140 163
-15 26 -35 81 -45 121 l-19 73 -9 -65 -9 -65 -22 81 c-30 108 -28 147 13 294
44 156 107 361 111 357 2 -1 -2 -52 -8 -112z"/>
<path d="M1260 2448 c150 -70 192 -87 175 -68 -25 27 -111 68 -160 75 -36 5
-38 4 -15 -7z"/>
<path d="M1127 2376 c-33 -27 -87 -104 -87 -125 0 -8 16 8 37 35 20 27 50 64
66 82 36 37 25 42 -16 8z"/>
<path d="M912 1930 c0 -14 2 -19 5 -12 2 6 2 18 0 25 -3 6 -5 1 -5 -13z"/>
<path d="M830 1421 c-12 -8 -12 -13 0 -35 7 -14 19 -26 26 -26 7 0 24 -14 39
-32 25 -30 27 -37 23 -110 -2 -63 0 -78 12 -81 22 -4 -43 -67 -70 -67 -28 0
-88 59 -71 69 9 6 9 15 1 35 -5 15 -10 43 -10 61 0 25 -6 37 -21 46 -22 11
-22 10 -17 -59 17 -236 238 -220 238 18 0 74 -19 128 -57 162 -24 22 -73 32
-93 19z"/>
<path d="M1508 1415 c-12 -12 17 -53 44 -63 48 -18 74 -118 48 -186 -8 -21 -6
-26 6 -26 12 0 13 -4 3 -22 -29 -54 -85 -64 -124 -22 -26 28 -32 44 -16 44 16
0 -1 124 -18 137 -23 17 -31 7 -31 -40 0 -99 56 -187 118 -187 37 0 90 42 108
87 34 80 7 229 -47 267 -22 15 -80 22 -91 11z"/>
<path d="M830 1305 c-19 -23 -23 -105 -8 -135 33 -61 84 0 72 85 -9 62 -36 83
-64 50z"/>
<path d="M1510 1301 c-15 -28 -12 -124 4 -146 28 -38 66 8 66 80 0 71 -45 112
-70 66z"/>
<path d="M1187 1073 c-11 -10 -8 -43 3 -43 6 0 10 11 10 25 0 26 -2 29 -13 18z"/>
<path d="M735 1010 c-3 -5 -1 -10 4 -10 6 0 11 5 11 10 0 6 -2 10 -4 10 -3 0
-8 -4 -11 -10z"/>
<path d="M1650 1006 c0 -9 5 -16 10 -16 6 0 10 4 10 9 0 6 -4 13 -10 16 -5 3
-10 -1 -10 -9z"/>
<path d="M760 990 c0 -5 5 -10 10 -10 6 0 10 5 10 10 0 6 -4 10 -10 10 -5 0
-10 -4 -10 -10z"/>
<path d="M790 984 c0 -8 5 -12 10 -9 6 3 10 10 10 16 0 5 -4 9 -10 9 -5 0 -10
-7 -10 -16z"/>
<path d="M1620 990 c0 -5 5 -10 10 -10 6 0 10 5 10 10 0 6 -4 10 -10 10 -5 0
-10 -4 -10 -10z"/>
<path d="M1595 980 c3 -5 8 -10 11 -10 2 0 4 5 4 10 0 6 -5 10 -11 10 -5 0 -7
-4 -4 -10z"/>
<path d="M1355 846 c-65 -29 -78 -31 -180 -31 -102 0 -114 2 -159 28 -61 34
-70 35 -25 2 102 -76 313 -68 419 15 32 25 29 24 -55 -14z"/>
</g>
</svg>
